<svg width="16" height="14" viewBox="0 0 16 14" fill="none" xmlns="http://www.w3.org/2000/svg">
<path fill-rule="evenodd" clip-rule="evenodd" d="M14.3599 0.0957425C14.5545 0.0109676 14.7676 -0.0182706 14.9768 0.0110705C15.1861 0.0404117 15.3839 0.12726 15.5498 0.262576C15.7156 0.397891 15.8433 0.576728 15.9197 0.780471C15.9961 0.984213 16.0183 1.20541 15.984 1.42105L14.1976 12.634C14.0243 13.7156 12.8775 14.3359 11.919 13.7971C11.1171 13.3464 9.92621 12.6519 8.85501 11.9273C8.31941 11.5646 6.67875 10.4031 6.88039 9.57666C7.05367 8.87 9.81043 6.21449 11.3857 4.63569C12.004 4.01543 11.722 3.65761 10.9919 4.22816C9.17874 5.64475 6.2676 7.79899 5.30509 8.4054C4.45601 8.94009 4.01336 9.03138 3.48406 8.94009C2.5184 8.77382 1.62285 8.51625 0.891916 8.20245C-0.0957919 7.77861 -0.0477455 6.37343 0.891128 5.96426L14.3599 0.0957425Z" fill="white"/>
</svg>
