<svg width="18" height="14" viewBox="0 0 18 14" fill="none" xmlns="http://www.w3.org/2000/svg">
<path d="M15.0201 1.16345C13.8958 0.621089 12.6785 0.227441 11.4105 0C11.3882 0.000328657 11.3669 0.00976141 11.3513 0.0262434C11.1992 0.314919 11.0217 0.691071 10.9033 0.979746C9.55837 0.769932 8.19063 0.769932 6.84569 0.979746C6.72734 0.682323 6.54982 0.314919 6.3892 0.0262434C6.38075 0.00874792 6.35539 0 6.33003 0C5.06202 0.227441 3.85319 0.621089 2.72044 1.16345C2.71198 1.16345 2.70353 1.1722 2.69508 1.18094C0.395757 4.74127 -0.238247 8.20537 0.0745285 11.6345C0.0745285 11.652 0.0829818 11.6695 0.0998886 11.6782C1.6215 12.8329 3.08393 13.5327 4.52946 13.9964C4.55482 14.0051 4.58018 13.9964 4.58863 13.9789C4.92677 13.4978 5.23109 12.9904 5.49315 12.4568C5.51005 12.4218 5.49315 12.3868 5.45933 12.378C4.97749 12.1856 4.52101 11.9582 4.07298 11.6957C4.03916 11.6782 4.03916 11.6257 4.06452 11.5995C4.15751 11.5295 4.2505 11.4508 4.34349 11.3808C4.36039 11.3633 4.38575 11.3633 4.40266 11.3721C7.31062 12.7455 10.4468 12.7455 13.321 11.3721C13.3379 11.3633 13.3632 11.3633 13.3801 11.3808C13.4731 11.4595 13.5661 11.5295 13.6591 11.6082C13.6929 11.6345 13.6929 11.687 13.6507 11.7045C13.2111 11.9756 12.7461 12.1943 12.2643 12.3868C12.2305 12.3955 12.222 12.4393 12.2305 12.4655C12.501 12.9991 12.8053 13.5065 13.135 13.9876C13.1604 13.9964 13.1857 14.0051 13.2111 13.9964C14.6651 13.5327 16.1275 12.8329 17.6491 11.6782C17.666 11.6695 17.6745 11.652 17.6745 11.6345C18.0464 7.67176 17.0574 4.2339 15.0539 1.18094C15.0455 1.1722 15.037 1.16345 15.0201 1.16345ZM5.93272 9.54378C5.06202 9.54378 4.33503 8.71274 4.33503 7.68926C4.33503 6.66577 5.04512 5.83474 5.93272 5.83474C6.82878 5.83474 7.53886 6.67452 7.53041 7.68926C7.53041 8.71274 6.82033 9.54378 5.93272 9.54378ZM11.8247 9.54378C10.954 9.54378 10.227 8.71274 10.227 7.68926C10.227 6.66577 10.9371 5.83474 11.8247 5.83474C12.7208 5.83474 13.4309 6.67452 13.4224 7.68926C13.4224 8.71274 12.7208 9.54378 11.8247 9.54378Z" fill="white"/>
</svg>
